<?xml version="1.0" encoding="UTF-8" standalone="no"?>
<!-- Created with Inkscape (http://www.inkscape.org/) -->

<svg
   width="43.774826mm"
   height="48.592098mm"
   viewBox="0 0 43.774826 48.592098"
   version="1.1"
   id="svg5"
   xml:space="preserve"
   inkscape:export-filename="favicon.svg"
   inkscape:export-xdpi="96"
   inkscape:export-ydpi="96"
   xmlns:inkscape="http://www.inkscape.org/namespaces/inkscape"
   xmlns:sodipodi="http://sodipodi.sourceforge.net/DTD/sodipodi-0.dtd"
   xmlns="http://www.w3.org/2000/svg"
   xmlns:svg="http://www.w3.org/2000/svg"><sodipodi:namedview
     id="namedview7"
     pagecolor="#ffffff"
     bordercolor="#000000"
     borderopacity="0.25"
     inkscape:showpageshadow="2"
     inkscape:pageopacity="0.0"
     inkscape:pagecheckerboard="0"
     inkscape:deskcolor="#d1d1d1"
     inkscape:document-units="mm"
     showgrid="false"
     inkscape:zoom="2.9825758"
     inkscape:cx="117.18059"
     inkscape:cy="107.28981"
     inkscape:window-width="2560"
     inkscape:window-height="1017"
     inkscape:window-x="-8"
     inkscape:window-y="-8"
     inkscape:window-maximized="1"
     inkscape:current-layer="layer1" /><defs
     id="defs2" /><g
     inkscape:label="Layer 1"
     inkscape:groupmode="layer"
     id="layer1"
     transform="translate(-4.9501726,-3.5325605)"><path
       id="rect503"
       style="fill:#ffffff;stroke-width:0.264583;stroke-linecap:square;stroke-linejoin:round"
       d="M 16.561263,3.5326009 C 15.224449,3.5298599 13.895817,3.6655254 12.810588,4.2994792 10.22013,5.8127477 10.270174,8.3516621 10.270174,10.98641 v 14.901416 c 0,1.986108 -0.6689043,5.314839 0.871265,6.832657 1.588006,1.564899 4.796105,0.957048 6.833691,0.957048 h 17.864543 c 2.192868,0 5.620456,0.659852 7.045565,-1.439705 0.998719,-1.471509 0.489892,-4.138103 0.489892,-5.842021 v -14.39292 h -6.26525 c -0.67716,0 -1.800185,0.219482 -2.331124,-0.287838 -0.57336,-0.547959 -0.378272,-1.532996 -0.378272,-2.2525755 V 3.6204508 H 19.583818 c -0.938042,0 -1.982811,-0.085718 -3.022555,-0.08785 z m 19.447909,0.9348267 -0.08475,1.8624186 V 10.47843 h 6.180502 L 39.642025,8.0077799 Z m -9.279021,3.4530192 c 0.265615,-0.025657 0.466445,0.2350985 0.605648,0.442867 0.43967,0.6561293 0.829678,1.3555845 1.239718,2.0308842 1.305638,2.150617 2.63942,4.283874 3.944979,6.434232 0.389549,0.64169 1.425242,1.767686 1.425752,2.532145 3.4e-4,0.52594 -1.194561,0.974005 -1.577681,1.222665 -1.659298,1.077219 -3.497283,2.505313 -5.334041,3.241662 -0.6013,0.24104 -1.296519,-0.362571 -1.778186,-0.675411 -1.363556,-0.885609 -2.784775,-1.680292 -4.148584,-2.566251 -0.397256,-0.25798 -1.511319,-0.690454 -1.563729,-1.218014 -0.07256,-0.729399 1.087972,-2.015909 1.462959,-2.621028 l 3.979086,-6.43475 c 0.376342,-0.6073192 0.942828,-2.0841992 1.626257,-2.3590289 0.0406,-0.016331 0.07988,-0.026307 0.117822,-0.029972 z m 0.05013,2.050004 c -0.75607,0.6979892 -1.197689,1.8468962 -1.751832,2.7093952 -1.175595,1.829558 -2.636147,3.760914 -3.49746,5.757272 l 3.640604,-1.799891 1.573031,-0.72502 1.475362,0.641305 3.725354,1.883606 z m -0.159164,7.3520062 c -0.378675,0.03781 -0.798118,0.345091 -1.110526,0.501261 -1.082039,0.54102 -2.589397,1.057597 -3.471623,1.883606 l 3.217375,1.920813 1.439188,0.796851 1.439706,-0.732255 3.302124,-1.985409 v -0.08475 c -1.040049,-0.43299 -2.054664,-1.000733 -3.048393,-1.531173 -0.46914,-0.25044 -1.075538,-0.697395 -1.608687,-0.767395 -0.052,-0.0068 -0.105067,-0.007 -0.159164,-0.0016 z m -5.44928,4.33772 c 0.431875,0.01371 1.032254,0.53222 1.290361,0.698148 0.975528,0.62713 1.969234,1.222958 2.963643,1.819527 0.359745,0.2159 0.843731,0.643063 1.26969,0.686263 0.42434,0.04309 0.930517,-0.423073 1.270207,-0.633553 1.012519,-0.627299 2.036697,-1.232669 3.047876,-1.862418 0.368129,-0.22936 0.957397,-0.788396 1.426786,-0.682646 0.738119,0.16628 -0.712181,1.812691 -0.906921,2.085661 -1.098119,1.539488 -2.14005,3.118431 -3.240629,4.65708 -0.37939,0.530349 -0.782803,1.465998 -1.350822,1.806608 -0.5384,0.32283 -1.169902,-1.040738 -1.421619,-1.383378 -1.226565,-1.669628 -2.376657,-3.393082 -3.578076,-5.08031 -0.215646,-0.30286 -1.456821,-1.688644 -1.036113,-2.029334 0.07542,-0.06107 0.165954,-0.08481 0.265617,-0.08165 z m 3.322795,3.381189 0.592212,1.015958 1.608687,2.201416 h 0.08475 c 0.777579,-0.898739 1.859025,-2.106976 2.286165,-3.217374 -0.629329,0.350349 -1.552186,1.25044 -2.286165,1.27434 -0.6322,0.02066 -1.778158,-0.905621 -2.285649,-1.27434 z m 21.82244,3.713468 c -0.445955,-0.0067 -0.894022,0.04114 -1.333251,0.09664 0,0.722459 0.0686,1.484457 -0.02481,2.201416 -0.04674,0.35839 -0.348443,0.904473 -0.247013,1.251603 0.156549,0.53603 1.349306,0.610379 1.795756,0.610299 1.919558,-9e-5 3.074725,-2.342761 1.431437,-3.646289 -0.33664,-0.26696 -0.750397,-0.440909 -1.177706,-0.487309 -0.147828,-0.0161 -0.295766,-0.02411 -0.444418,-0.02636 z m -38.9862503,0.0057 C 6.8808518,28.7611 6.4369879,28.819916 6.0368408,29.020451 4.6713382,29.70481 4.5678462,31.76751 5.8678589,32.57734 6.8278769,33.175419 8.1096375,32.867913 9.0852336,32.492074 8.655801,31.378795 8.3776331,30.043738 8.6614868,28.851469 8.2368372,28.817939 7.7807856,28.759937 7.3308187,28.760518 Z m -0.4526856,1.466061 c 0.5305456,-0.01798 0.7763633,0.870982 0.1705323,1.141532 -0.6601794,0.29481 -1.0200987,-0.762516 -0.4139283,-1.073836 0.085759,-0.04404 0.1676038,-0.06513 0.243396,-0.0677 z m 39.9675859,0.0078 c 0.535094,0.04943 0.728092,0.959768 0.08372,1.175122 -0.686309,0.22928 -0.991409,-0.897478 -0.332279,-1.138948 0.08896,-0.03261 0.172121,-0.04323 0.248563,-0.03617 z m -33.611901,4.967139 c 0,1.300139 0.216578,2.851996 -0.349333,4.063835 -0.447294,0.957659 -1.370654,1.719988 -2.105815,2.455147 -0.404113,0.404109 -0.8384053,1.009383 -1.3549558,1.267623 -0.3085257,0.15423 -0.688977,0.06767 -1.0159587,0.181384 -0.7707622,0.26797 -1.3226469,1.121347 -1.254187,1.937866 0.1460589,1.742018 2.4937154,2.452928 3.4711055,0.93121 0.457284,-0.71179 -0.141661,-1.592667 0.208773,-2.201416 0.684446,-1.189059 2.093849,-1.976507 2.877861,-3.132626 1.123526,-1.656668 0.876949,-3.599635 0.876949,-5.503023 z m 4.487064,0 c 0,2.478607 0.322571,4.977173 -1.188558,7.111711 -0.679788,0.960199 -1.679234,1.645646 -2.348694,2.624646 -0.404113,0.590969 -0.425205,1.362574 -0.794266,1.923913 -0.180001,0.27372 -0.57595,0.318298 -0.831474,0.501778 -0.617562,0.44331 -0.873032,1.248921 -0.7059,1.977141 0.389804,1.698578 2.874608,1.985929 3.56464,0.33848 0.545508,-1.302249 -0.852416,-2.044989 -0.398942,-3.216858 0.653203,-1.687908 2.466442,-2.639905 3.305741,-4.233333 1.117261,-2.121068 0.752409,-4.71448 0.752409,-7.027478 z m 4.318083,0 c 0,2.360668 0.298429,4.945592 -0.03617,7.281209 -0.257724,1.798738 -1.314465,3.411354 -1.318265,5.249292 -0.0028,1.378119 -1.694365,2.3746 -0.395325,3.801319 1.104052,1.212508 3.155705,0.431906 3.255615,-1.176673 0.0878,-1.412748 -1.436925,-1.635718 -1.420585,-2.963126 0.01795,-1.465829 1.023543,-2.852425 1.233516,-4.318083 0.361614,-2.524338 0.03617,-5.322351 0.03617,-7.873938 z m 4.148584,0 v 10.160103 c 0,0.71578 -0.390421,3.027887 0.677478,3.103687 1.148169,0.08145 0.762227,-2.332895 0.762227,-3.019454 V 35.201469 Z m 5.50354,0 -1.439189,0.08475 c 0.13509,2.576408 -0.267889,5.229881 0.110071,7.789189 0.24079,1.630168 1.337934,3.076254 1.326534,4.741313 -0.0069,1.001769 -1.479965,1.200048 -1.404565,2.455147 0.09813,1.632368 2.078466,2.48494 3.254065,1.261422 0.557699,-0.58047 0.691043,-1.582431 0.269234,-2.277381 -0.32918,-0.542289 -0.756194,-0.753479 -0.761194,-1.439188 -0.01228,-1.779359 -0.958899,-3.196314 -1.245919,-4.910812 -0.413509,-2.470657 -0.109037,-5.201192 -0.109037,-7.704439 z m 2.878894,0 c 0,2.357538 -0.305914,4.881003 0.872815,7.026961 0.848609,1.545079 2.568572,2.513603 3.237012,4.149101 0.09381,0.22962 0.27004,0.578331 0.21394,0.83199 -0.07637,0.34501 -0.489611,0.59737 -0.622701,0.945679 -0.3959,1.035989 0.132009,2.373644 1.293978,2.596224 2.485467,0.47609 3.257935,-3.251752 0.762227,-3.696932 -0.20354,-2.492417 -2.511301,-3.580924 -3.614249,-5.587772 -1.040559,-1.893229 -0.703833,-4.176193 -0.703833,-6.265251 z m 4.487065,0 c 0,1.761228 -0.26962,3.695063 0.736389,5.249292 0.800019,1.235959 2.460574,2.095868 3.089734,3.386357 0.312759,0.641679 -0.300963,1.441786 0.176216,2.201416 0.892719,1.421128 3.225426,0.903677 3.432866,-0.761711 0.112429,-0.902969 -0.371125,-1.800105 -1.254704,-2.107365 -0.33477,-0.11639 -0.755624,-0.01246 -1.056783,-0.205672 -0.54618,-0.35035 -1.022184,-1.036147 -1.483114,-1.497066 -0.713149,-0.71315 -1.550773,-1.424006 -1.957503,-2.370915 -0.492,-1.145449 -0.243913,-2.671497 -0.243913,-3.894336 z M 8.9741292,44.447416 c 0.4639307,-0.03931 0.7476691,0.727853 0.267684,0.994771 -0.5723455,0.31826 -1.0104905,-0.610048 -0.47594,-0.925008 0.071913,-0.04236 0.1419802,-0.06415 0.208256,-0.06976 z m 35.6407188,5.17e-4 c 0.468904,-0.03879 0.742421,0.720144 0.2651,0.994254 -0.56057,0.3219 -1.014676,-0.617928 -0.476457,-0.925008 0.07335,-0.04184 0.14437,-0.0637 0.211357,-0.06925 z m -30.91956,3.926892 c 0.565211,-0.0389 0.679047,0.925879 0.04547,1.043347 -0.618658,0.11464 -0.734739,-0.856373 -0.164847,-1.021643 0.0416,-0.01206 0.08169,-0.01911 0.119372,-0.0217 z m 26.325525,0.0016 c 0.544516,-0.03696 0.728318,0.877104 0.133325,1.049032 -0.655069,0.18923 -0.882336,-0.844558 -0.246496,-1.028878 0.03939,-0.01142 0.07687,-0.01769 0.113171,-0.02015 z m -18.349784,1.325501 c 0.469504,-0.03154 0.716518,0.727419 0.193786,0.989603 -0.571669,0.28676 -0.942726,-0.632884 -0.40721,-0.923974 0.07456,-0.04051 0.146352,-0.06112 0.213424,-0.06563 z m 10.489799,0.0021 c 0.454327,-0.03302 0.740538,0.687291 0.272851,0.963249 -0.578019,0.340949 -1.025939,-0.593787 -0.47594,-0.899687 0.07006,-0.03896 0.138185,-0.05884 0.203089,-0.06356 z" /></g></svg>
